<svg xmlns="http://www.w3.org/2000/svg" version="1.1" xmlns:xlink="http://www.w3.org/1999/xlink" xmlns:svgjs="http://svgjs.dev/svgjs" width="1000" height="1000" viewBox="0 0 1000 1000"><rect width="1000" height="1000" fill="#000000"></rect><g transform="matrix(0.7,0,0,0.7,149.57575776424858,432.7861560459256)"><svg viewBox="0 0 396 76" data-background-color="#89939e" preserveAspectRatio="xMidYMid meet" height="191" width="1000" xmlns="http://www.w3.org/2000/svg" xmlns:xlink="http://www.w3.org/1999/xlink"><g id="tight-bounds" transform="matrix(1,0,0,1,0.24000010663206695,0.20682229251795547)"><svg viewBox="0 0 395.52 75.5863554149641" height="75.5863554149641" width="395.52"><g><svg viewBox="0 0 520.3305242237396 99.43843026200996" height="75.5863554149641" width="395.52"><g><rect width="4.149025780433106" height="99.43843026200996" x="109.80017441075913" y="0" fill="#ffffff" opacity="1" stroke-width="0" stroke="transparent" fill-opacity="1" class="rect-o-0" data-fill-palette-color="primary" rx="1%" id="o-0" data-palette-color="#ffffff"></rect></g><g transform="matrix(1,0,0,1,124.81052422373963,0.24735927925872403)"><svg viewBox="0 0 395.52 98.94371170349251" height="98.94371170349251" width="395.52"><g id="textblocktransform"><svg viewBox="0 0 395.52 98.94371170349251" height="98.94371170349251" width="395.52" id="textblock"><g><svg viewBox="0 0 395.52 98.94371170349251" height="98.94371170349251" width="395.52"><g transform="matrix(1,0,0,1,0,0)"><svg width="395.52" viewBox="1.9300007820129395 -39.36000442504883 342.7700500488281 82.20000457763672" height="98.94371170349251" data-palette-color="#ffffff"><svg></svg><svg></svg><g class="wordmark-text-0" data-fill-palette-color="primary" id="text-0"><path xmlns="http://www.w3.org/2000/svg" d="M24.12-33.15h5.32l7.16 24.78 1.17 4.98h0.46l1.17-4.98 6.96-27.4h4.69l-10.33 35.77h-5.56l-6.89-22.58-1.39-5.98h-0.49l-1.39 5.98-6.91 22.58h-5.52l-10.4-35.77h5.08l7.01 27.4 1.02 4.98h0.47l1.22-4.98zM80.35 0l-3.4-9.72h-15.43l-3.34 9.72h-4.52l13.31-35.77h5.08l13.33 35.77zM62.82-13.45h12.79l-4.74-13.97-1.39-4.98h-0.49l-1.39 4.98zM114.58-35.77l-12.48 20.1v15.67h-4.79v-15.63l-11.84-20.14h5.47l6.86 12.89 2.18 4.79h0.48l2.32-4.74 7.01-12.94zM126.61 0h-4.78v-35.77h20.97l-0.73 3.79h-15.46v11.42h13.77l-0.73 3.79h-13.04zM155.32-35.77v35.77h-4.78v-35.77zM170.09 0h-4.37v-35.77h6.96l16.87 24.42 2.44 4.39h0.49l-0.34-4.98v-23.83h4.37v35.77h-4.05l-20.02-28.81-2.2-4.25h-0.49l0.34 4.98zM206.91 0v-35.77h12.08c3.16 0 5.933 0.437 8.32 1.31 2.38 0.873 4.37 2.057 5.97 3.55 1.593 1.5 2.793 3.267 3.6 5.3 0.807 2.033 1.21 4.207 1.21 6.52v0c0 1.493-0.173 3.003-0.52 4.53-0.34 1.52-0.863 2.987-1.57 4.4-0.707 1.42-1.597 2.747-2.67 3.98-1.08 1.24-2.357 2.317-3.83 3.23-1.473 0.907-3.147 1.627-5.02 2.16-1.88 0.527-3.97 0.79-6.27 0.79v0zM211.69-31.98v28.2h7.4c2.36 0 4.42-0.38 6.18-1.14 1.76-0.753 3.213-1.78 4.36-3.08 1.147-1.293 2.003-2.807 2.57-4.54 0.573-1.733 0.86-3.583 0.86-5.55v0c0-2.147-0.33-4.08-0.99-5.8-0.66-1.713-1.62-3.17-2.88-4.37-1.267-1.193-2.823-2.113-4.67-2.76-1.847-0.64-3.95-0.96-6.31-0.96v0zM267.65 0h-20.63v-35.77h20.97l-0.73 3.79h-15.45v11.42h13.77l-0.74 3.79h-13.03v12.99h16.57zM288.26-14.26h-6.57v14.26h-4.79v-35.77h10.11c1.76 0 3.373 0.247 4.84 0.74 1.46 0.487 2.713 1.157 3.76 2.01 1.04 0.853 1.847 1.86 2.42 3.02 0.58 1.153 0.87 2.397 0.87 3.73v0c0 1.173-0.21 2.267-0.63 3.28-0.427 1.02-0.98 1.957-1.66 2.81-0.687 0.853-1.467 1.623-2.34 2.31-0.867 0.68-1.74 1.273-2.62 1.78v0l10.52 16.09h-5.73zM281.69-31.98v13.94h7.93c0.687-0.373 1.303-0.83 1.85-1.37 0.547-0.533 1.007-1.123 1.38-1.77 0.373-0.64 0.66-1.32 0.86-2.04 0.207-0.713 0.31-1.447 0.31-2.2v0c0-0.927-0.163-1.793-0.49-2.6-0.327-0.8-0.82-1.493-1.48-2.08-0.66-0.587-1.483-1.047-2.47-1.38-0.993-0.333-2.16-0.5-3.5-0.5v0zM308.62-23.54l-1.52-1.07c0.553-0.6 1.08-1.233 1.58-1.9 0.493-0.667 0.937-1.343 1.33-2.03 0.393-0.687 0.727-1.353 1-2 0.28-0.653 0.477-1.263 0.59-1.83v0c-0.18-0.167-0.403-0.343-0.67-0.53-0.273-0.187-0.563-0.36-0.87-0.52-0.313-0.167-0.63-0.31-0.95-0.43-0.327-0.12-0.637-0.213-0.93-0.28v0c-0.133-0.227-0.223-0.497-0.27-0.81-0.047-0.307-0.07-0.573-0.07-0.8v0c0-0.393 0.077-0.8 0.23-1.22 0.153-0.427 0.377-0.817 0.67-1.17 0.293-0.36 0.663-0.653 1.11-0.88 0.447-0.233 0.963-0.35 1.55-0.35v0c0.453 0 0.907 0.087 1.36 0.26 0.447 0.173 0.847 0.447 1.2 0.82 0.36 0.373 0.65 0.857 0.87 1.45 0.22 0.593 0.33 1.313 0.33 2.16v0c0 0.78-0.123 1.62-0.37 2.52-0.24 0.893-0.623 1.817-1.15 2.77-0.533 0.953-1.213 1.92-2.04 2.9-0.833 0.987-1.827 1.967-2.98 2.94zM332.64-3.3v0c1.073 0 2.067-0.14 2.98-0.42 0.913-0.287 1.693-0.693 2.34-1.22 0.653-0.533 1.163-1.167 1.53-1.9 0.367-0.727 0.55-1.54 0.55-2.44v0c0-1.053-0.25-1.947-0.75-2.68-0.493-0.733-1.143-1.377-1.95-1.93-0.807-0.553-1.73-1.047-2.77-1.48-1.04-0.433-2.097-0.873-3.17-1.32-1.073-0.447-2.133-0.93-3.18-1.45-1.04-0.52-1.963-1.153-2.77-1.9-0.807-0.753-1.457-1.637-1.95-2.65-0.5-1.02-0.75-2.253-0.75-3.7v0c0-1.533 0.293-2.91 0.88-4.13 0.587-1.22 1.407-2.257 2.46-3.11 1.047-0.853 2.29-1.503 3.73-1.95 1.44-0.447 3.023-0.67 4.75-0.67v0c1.06 0 2.387 0.1 3.98 0.3 1.593 0.207 3.287 0.577 5.08 1.11v0l-0.81 4.25-0.49 0.24c-0.893-0.407-1.763-0.747-2.61-1.02-0.847-0.28-1.643-0.5-2.39-0.66-0.747-0.167-1.44-0.28-2.08-0.34-0.633-0.067-1.187-0.1-1.66-0.1v0c-0.96 0-1.827 0.117-2.6 0.35-0.773 0.24-1.43 0.583-1.97 1.03-0.547 0.447-0.97 0.99-1.27 1.63-0.307 0.647-0.46 1.377-0.46 2.19v0c0 1.093 0.25 2.02 0.75 2.78 0.493 0.767 1.153 1.443 1.98 2.03 0.82 0.587 1.75 1.107 2.79 1.56 1.047 0.46 2.11 0.917 3.19 1.37 1.08 0.453 2.14 0.94 3.18 1.46 1.047 0.52 1.98 1.127 2.8 1.82 0.82 0.693 1.48 1.513 1.98 2.46 0.493 0.94 0.74 2.07 0.74 3.39v0c0 1.447-0.313 2.827-0.94 4.14-0.627 1.307-1.503 2.46-2.63 3.46-1.133 1.007-2.493 1.807-4.08 2.4-1.587 0.593-3.34 0.89-5.26 0.89v0c-0.813 0-1.663-0.057-2.55-0.17-0.887-0.113-1.78-0.273-2.68-0.48-0.893-0.2-1.777-0.447-2.65-0.74-0.867-0.293-1.69-0.62-2.47-0.98v0l0.83-4.27 0.48-0.25c1.66 0.96 3.343 1.717 5.05 2.27 1.7 0.553 3.313 0.83 4.84 0.83z" fill="#ffffff" fill-rule="nonzero" stroke="none" stroke-width="1" stroke-linecap="butt" stroke-linejoin="miter" stroke-miterlimit="10" stroke-dasharray="" stroke-dashoffset="0" font-family="none" font-weight="none" font-size="none" text-anchor="none" style="mix-blend-mode: normal" data-fill-palette-color="primary" opacity="1"></path><path xmlns="http://www.w3.org/2000/svg" d="M28.61 42.84l-3.39-9.72h-15.43l-3.34 9.72h-4.52l13.3-35.77h5.08l13.33 35.77zM11.08 29.39h12.8l-4.74-13.97-1.39-4.98h-0.49l-1.39 4.98zM45.68 10.86v31.98h-4.79v-35.77h9.77c1.887 0 3.64 0.24 5.26 0.72 1.62 0.48 3.027 1.187 4.22 2.12 1.2 0.927 2.14 2.077 2.82 3.45 0.687 1.373 1.03 2.963 1.03 4.77v0c0 1.287-0.17 2.48-0.51 3.58-0.347 1.1-0.823 2.097-1.43 2.99-0.613 0.893-1.327 1.687-2.14 2.38-0.813 0.693-1.69 1.277-2.63 1.75-0.947 0.467-1.933 0.823-2.96 1.07-1.027 0.247-2.05 0.37-3.07 0.37v0c-0.2 0-0.413-0.007-0.64-0.02-0.227-0.007-0.503-0.033-0.83-0.08v0l0.34-3.66c0.293 0.047 0.547 0.073 0.76 0.08 0.213 0.007 0.423 0.01 0.63 0.01v0c1.047 0 2.03-0.157 2.95-0.47 0.913-0.32 1.717-0.803 2.41-1.45 0.693-0.653 1.24-1.473 1.64-2.46 0.4-0.98 0.6-2.147 0.6-3.5v0c0-1.387-0.217-2.577-0.65-3.57-0.433-0.987-1.053-1.8-1.86-2.44-0.8-0.633-1.783-1.1-2.95-1.4-1.167-0.3-2.473-0.45-3.92-0.45v0zM76.46 10.86v31.98h-4.78v-35.77h9.77c1.887 0 3.64 0.24 5.26 0.72 1.62 0.48 3.027 1.187 4.22 2.12 1.193 0.927 2.133 2.077 2.82 3.45 0.687 1.373 1.03 2.963 1.03 4.77v0c0 1.287-0.173 2.48-0.52 3.58-0.34 1.1-0.817 2.097-1.43 2.99-0.607 0.893-1.317 1.687-2.13 2.38-0.813 0.693-1.693 1.277-2.64 1.75-0.94 0.467-1.923 0.823-2.95 1.07-1.027 0.247-2.053 0.37-3.08 0.37v0c-0.193 0-0.403-0.007-0.63-0.02-0.233-0.007-0.51-0.033-0.83-0.08v0l0.34-3.66c0.293 0.047 0.547 0.073 0.76 0.08 0.207 0.007 0.417 0.01 0.63 0.01v0c1.04 0 2.02-0.157 2.94-0.47 0.92-0.32 1.727-0.803 2.42-1.45 0.693-0.653 1.237-1.473 1.63-2.46 0.4-0.98 0.6-2.147 0.6-3.5v0c0-1.387-0.213-2.577-0.64-3.57-0.433-0.987-1.053-1.8-1.86-2.44-0.807-0.633-1.79-1.1-2.95-1.4-1.167-0.3-2.473-0.45-3.92-0.45v0zM122.75 42.84l-3.39-9.72h-15.43l-3.34 9.72h-4.52l13.31-35.77h5.07l13.33 35.77zM105.22 29.39h12.8l-4.74-13.97-1.39-4.98h-0.49l-1.39 4.98zM146.39 28.58h-6.57v14.26h-4.79v-35.77h10.11c1.76 0 3.373 0.247 4.84 0.74 1.46 0.487 2.713 1.157 3.76 2.01 1.04 0.853 1.847 1.86 2.42 3.02 0.58 1.153 0.87 2.397 0.87 3.73v0c0 1.173-0.21 2.267-0.63 3.28-0.427 1.02-0.98 1.957-1.66 2.81-0.687 0.853-1.467 1.623-2.34 2.31-0.867 0.68-1.74 1.273-2.62 1.78v0l10.52 16.09h-5.73zM139.82 10.86v13.94h7.93c0.687-0.373 1.303-0.83 1.85-1.37 0.547-0.533 1.007-1.123 1.38-1.77 0.373-0.64 0.66-1.32 0.86-2.04 0.207-0.713 0.31-1.447 0.31-2.2v0c0-0.927-0.163-1.793-0.49-2.6-0.327-0.8-0.82-1.493-1.48-2.08-0.66-0.587-1.483-1.047-2.47-1.38-0.993-0.333-2.16-0.5-3.5-0.5v0zM188.01 42.84h-20.63v-35.77h20.97l-0.73 3.79h-15.45v11.42h13.77l-0.73 3.79h-13.04v12.99h16.58zM216.11 42.84h-18.84v-35.77h4.78v31.99h14.8z" fill="#ffffff" fill-rule="nonzero" stroke="none" stroke-width="1" stroke-linecap="butt" stroke-linejoin="miter" stroke-miterlimit="10" stroke-dasharray="" stroke-dashoffset="0" font-family="none" font-weight="none" font-size="none" text-anchor="none" style="mix-blend-mode: normal" data-fill-palette-color="primary" opacity="1"></path></g></svg></g></svg></g></svg></g></svg></g><g transform="matrix(1,0,0,1,0,0.24735927925871692)"><svg viewBox="0 0 98.93885037821173 98.94371170349253" height="98.94371170349253" width="98.93885037821173"><g><svg xmlns="http://www.w3.org/2000/svg" xmlns:xlink="http://www.w3.org/1999/xlink" version="1.1" x="0" y="0" viewBox="0.3583327531814575 0.3587183356285095 89.28327178955078 89.28765869140625" enable-background="new 0 0 90 90" xml:space="preserve" height="98.94371170349253" width="98.93885037821173" class="icon-icon-0" data-fill-palette-color="accent" id="icon-0"><polygon points="57.928,58.169 57.875,76.027 45.397,63.548 45.397,45.639 " fill="#ffffff" data-fill-palette-color="accent"></polygon><polygon points="76.027,57.875 58.475,57.927 45.826,45.279 63.432,45.279 " fill="#ffffff" data-fill-palette-color="accent"></polygon><polygon points="76.027,32.125 63.432,44.721 45.707,44.721 58.355,32.073 " fill="#ffffff" data-fill-palette-color="accent"></polygon><polygon points="44.838,45.59 44.838,63.314 32.125,76.027 32.074,58.355 " fill="#ffffff" data-fill-palette-color="accent"></polygon><polygon points="57.928,31.712 45.397,44.243 45.397,26.452 57.875,13.974 " fill="#ffffff" data-fill-palette-color="accent"></polygon><polygon points="44.838,26.687 44.838,44.291 32.074,31.526 32.125,13.974 " fill="#ffffff" data-fill-palette-color="accent"></polygon><polygon points="44.479,44.721 26.569,44.721 13.974,32.125 31.832,32.073 " fill="#ffffff" data-fill-palette-color="accent"></polygon><polygon points="44.36,45.279 31.712,57.927 13.974,57.875 26.569,45.279 " fill="#ffffff" data-fill-palette-color="accent"></polygon><rect x="58.48" y="58.48" width="18.049" height="18.049" fill="#ffffff" data-fill-palette-color="accent"></rect><polygon points="76.527,13.474 76.527,31.516 58.914,31.516 58.912,31.518 58.484,31.516 58.484,13.474 " fill="#ffffff" data-fill-palette-color="accent"></polygon><polygon points="31.518,30.971 31.516,31.516 13.474,31.516 13.474,13.474 31.516,13.474 31.516,30.968 " fill="#ffffff" data-fill-palette-color="accent"></polygon><rect x="13.471" y="58.48" width="18.05" height="18.049" fill="#ffffff" data-fill-palette-color="accent"></rect><rect x="67.864" y="35.981" transform="matrix(0.7071 -0.7071 0.7071 0.7071 -9.3022 67.5465)" width="18.042" height="18.042" fill="#ffffff" data-fill-palette-color="accent"></rect><rect x="35.979" y="4.094" transform="matrix(0.7071 -0.7071 0.7071 0.7071 3.9068 35.6621)" width="18.042" height="18.042" fill="#ffffff" data-fill-palette-color="accent"></rect><rect x="4.095" y="35.98" transform="matrix(0.7071 -0.7071 0.7071 0.7071 -27.9787 22.4536)" width="18.041" height="18.041" fill="#ffffff" data-fill-palette-color="accent"></rect><rect x="35.98" y="67.865" transform="matrix(0.7071 -0.7071 0.7071 0.7071 -41.1877 54.3437)" width="18.04" height="18.041" fill="#ffffff" data-fill-palette-color="accent"></rect></svg></g></svg></g></svg></g><defs></defs></svg><rect width="395.52" height="75.5863554149641" fill="none" stroke="none" visibility="hidden"></rect></g></svg></g></svg>